<svg width="24" height="18" viewBox="0 0 24 18" fill="none" xmlns="http://www.w3.org/2000/svg">
<path d="M1.71428 10.8L18.1714 10.8L14.2114 14.958C13.8737 15.3126 13.7143 15.7356 13.7143 16.2C13.7143 17.0856 14.4111 18 15.4286 18C15.8837 18 16.2806 17.8263 16.6114 17.478L23.4326 10.3158C23.7137 10.0206 24 9.6561 24 9C24 8.3439 23.7609 8.028 23.4463 7.6977L16.6114 0.522001C16.2806 0.1737 15.8837 0 15.4286 0C14.4103 0 13.7143 0.9144 13.7143 1.8C13.7143 2.2644 13.8737 2.6874 14.2114 3.042L18.1714 7.2L1.71428 7.2C0.768 7.2 0 8.0064 0 9C0 9.9936 0.768 10.8 1.71428 10.8Z" fill="white"/>
</svg>
