<svg width="24" height="18" viewBox="0 0 24 18" fill="none" xmlns="http://www.w3.org/2000/svg">
<path d="M22.2857 7.2H5.82857L9.78857 3.042C10.1263 2.6874 10.2857 2.2644 10.2857 1.8C10.2857 0.9144 9.58886 0 8.57143 0C8.11629 0 7.71943 0.1737 7.38857 0.522L0.567429 7.6842C0.286286 7.9794 0 8.3439 0 9C0 9.6561 0.239143 9.972 0.553714 10.3023L7.38857 17.478C7.71943 17.8263 8.11629 18 8.57143 18C9.58971 18 10.2857 17.0856 10.2857 16.2C10.2857 15.7356 10.1263 15.3126 9.78857 14.958L5.82857 10.8H22.2857C23.232 10.8 24 9.9936 24 9C24 8.0064 23.232 7.2 22.2857 7.2Z" fill="white"/>
</svg>
